<svg width="12" height="4" viewBox="0 0 12 4" fill="none" xmlns="http://www.w3.org/2000/svg">
<g clip-path="url(#clip0)">
<path d="M1.2 2.49002C1.86274 2.49002 2.4 1.97365 2.4 1.33668C2.4 0.699715 1.86274 0.18335 1.2 0.18335C0.537258 0.18335 0 0.699715 0 1.33668C0 1.97365 0.537258 2.49002 1.2 2.49002Z" fill="#C5C5D0"/>
<path d="M5.9998 2.49002C6.66255 2.49002 7.1998 1.97365 7.1998 1.33668C7.1998 0.699715 6.66255 0.18335 5.9998 0.18335C5.33706 0.18335 4.7998 0.699715 4.7998 1.33668C4.7998 1.97365 5.33706 2.49002 5.9998 2.49002Z" fill="#C5C5D0"/>
<path d="M10.7996 2.49002C11.4624 2.49002 11.9996 1.97365 11.9996 1.33668C11.9996 0.699715 11.4624 0.18335 10.7996 0.18335C10.1369 0.18335 9.59961 0.699715 9.59961 1.33668C9.59961 1.97365 10.1369 2.49002 10.7996 2.49002Z" fill="#C5C5D0"/>
</g>
<defs>
<clipPath id="clip0">
<rect width="12" height="2.88333" fill="white" transform="translate(0 0.18335)"/>
</clipPath>
</defs>
</svg>
