<svg width="30" height="24" viewBox="0 0 30 24" fill="none" xmlns="http://www.w3.org/2000/svg">
<path d="M26.25 2.91667H14.5833L11.6667 0H2.91667C1.3125 0 0.0145833 1.3125 0.0145833 2.91667L0 20.4167C0 22.0208 1.3125 23.3333 2.91667 23.3333H26.25C27.8542 23.3333 29.1667 22.0208 29.1667 20.4167V5.83333C29.1667 4.22917 27.8542 2.91667 26.25 2.91667ZM18.9583 7.29167C20.5625 7.29167 21.875 8.60417 21.875 10.2083C21.875 11.8125 20.5625 13.125 18.9583 13.125C17.3542 13.125 16.0417 11.8125 16.0417 10.2083C16.0417 8.60417 17.3542 7.29167 18.9583 7.29167ZM24.7917 18.9583H13.125V17.5C13.125 15.5604 17.0188 14.5833 18.9583 14.5833C20.8979 14.5833 24.7917 15.5604 24.7917 17.5V18.9583Z" fill="#217CE8"/>
</svg>
