<svg width="655" height="681" viewBox="0 0 655 681" fill="none" xmlns="http://www.w3.org/2000/svg">
<g clip-path="url(#clip0)">
<path opacity="0.4" d="M404.373 538.604L322.642 491.4C316.745 488.002 317.489 482.047 324.299 478.128L377.246 447.54L480.361 507.004L427.414 537.592C420.618 541.581 410.326 542.002 404.373 538.604Z" fill="#D6D8E5"/>
<path d="M410.396 535.092L328.665 487.889C322.768 484.49 323.512 478.536 330.322 474.617L383.312 444.028L486.371 503.549L433.423 534.137C426.585 538.07 416.293 538.491 410.396 535.092Z" fill="#B1B4C4"/>
<path d="M486.342 503.563V500.431L481.583 503.184L486.342 503.563Z" fill="#B1B4C4"/>
<path d="M324.692 482.257V479.097L329.578 481.12L324.692 482.257Z" fill="#B1B4C4"/>
<path d="M410.396 531.961L328.665 484.771C322.768 481.359 323.512 475.418 330.322 471.485L383.312 440.911L486.371 500.431L433.423 531.006C426.585 534.938 416.293 535.373 410.396 531.961Z" fill="#D6D8E5"/>
<path d="M383.55 441.051L370.787 398.721L474.983 458.494L486.342 500.431L383.55 441.051Z" fill="#9EA1AF"/>
<path d="M483.31 502.172L486.329 500.431L481.85 496.849L483.31 502.172Z" fill="#9EA1AF"/>
<path d="M380.25 442.638L367.501 400.308L471.698 460.095L483.309 502.172L380.25 442.638Z" fill="#B1B4C4"/>
<path d="M644.75 573.518L241.5 340.605C235.884 337.347 231.25 328.569 231.25 321.027V8.97437C231.25 1.43252 235.842 -2.03645 241.5 1.2359L644.75 234.149C650.366 237.407 655 246.171 655 253.712V565.779C655 573.321 650.408 576.79 644.75 573.518Z" fill="#C4C7D6"/>
<path d="M646.828 576.734L651.293 574.164L649.369 560.906L646.828 576.734Z" fill="#C4C7D6"/>
<path d="M230.478 3.14598L234.873 0.617981L241.191 4.21335C241.191 4.21335 234.466 5.2386 234.297 5.21051C234.129 5.18242 230.478 3.14598 230.478 3.14598Z" fill="#B1B4C4"/>
<path d="M641.058 575.653L237.738 342.684C232.121 339.426 227.502 330.662 227.502 323.106V11.1091C227.502 3.56728 232.093 0.0983107 237.738 3.37066L641.058 236.283C646.674 239.542 651.293 248.305 651.293 255.861V567.914C651.293 575.456 646.716 578.925 641.058 575.653Z" fill="#E4E7F2"/>
<path d="M640.341 576.06L237.035 343.147C231.419 339.875 226.786 331.111 226.786 323.569V11.5164C226.786 3.97457 231.377 0.505598 237.035 3.77795L640.341 236.691C645.957 239.949 650.591 248.713 650.591 256.255V568.322C650.591 575.821 646 579.332 640.341 576.06Z" fill="#D6D8E5"/>
<path d="M645.045 557.086L231.911 318.499L232.122 12.7664C232.122 9.63446 234.326 8.37046 237.036 9.95748L640.342 242.842C641.771 243.776 642.96 245.033 643.814 246.511C644.668 247.99 645.162 249.648 645.256 251.353L645.045 557.086Z" fill="white"/>
<path d="M290.222 111.021L252.733 89.3365C252.084 88.8686 251.552 88.2554 251.182 87.5459C250.811 86.8363 250.612 86.05 250.599 85.2496V42.6388C250.599 41.0658 251.553 40.3496 252.733 41.0237L290.222 62.7223C290.872 63.1857 291.405 63.796 291.775 64.5036C292.146 65.2113 292.345 65.9964 292.356 66.7952V109.406C292.356 110.951 291.401 111.709 290.222 111.021Z" fill="#D9D9D9"/>
<path d="M342.285 141.09L304.684 119.378C304.034 118.91 303.503 118.296 303.133 117.587C302.762 116.877 302.562 116.091 302.549 115.291V72.7079C302.549 71.1349 303.504 70.4187 304.684 71.0928L342.242 92.7914C342.907 93.2544 343.451 93.8694 343.829 94.5851C344.208 95.3009 344.41 96.0968 344.419 96.9065V139.475C344.419 141.048 343.464 141.849 342.285 141.09Z" fill="#D9D9D9"/>
<path d="M393.14 170.429L355.511 148.73C354.861 148.267 354.328 147.657 353.957 146.949C353.587 146.241 353.388 145.456 353.377 144.658V102.047C353.377 100.474 354.332 99.7435 355.511 100.432L393.14 122.186C393.791 122.65 394.323 123.26 394.694 123.968C395.065 124.675 395.264 125.46 395.275 126.259V168.814C395.204 170.387 394.25 171.103 393.14 170.429Z" fill="#D9D9D9"/>
<path d="M290.222 171.159L252.733 149.475C252.084 149.007 251.552 148.394 251.182 147.684C250.811 146.975 250.612 146.188 250.599 145.388V102.777C250.599 101.204 251.553 100.488 252.733 101.162L290.222 122.847C290.871 123.314 291.402 123.928 291.773 124.637C292.143 125.347 292.343 126.133 292.356 126.933V169.544C292.356 171.117 291.401 171.848 290.222 171.159Z" fill="#D9D9D9"/>
<path d="M342.285 201.228L304.684 179.544C304.034 179.076 303.503 178.463 303.133 177.753C302.762 177.044 302.562 176.257 302.549 175.457V132.846C302.549 131.273 303.504 130.557 304.684 131.231L342.242 152.916C342.892 153.384 343.423 153.997 343.793 154.706C344.164 155.416 344.364 156.202 344.377 157.003V199.613C344.419 201.186 343.464 201.917 342.285 201.228Z" fill="#D9D9D9"/>
<path d="M347.409 198.406L309.85 176.707C309.2 176.243 308.668 175.633 308.297 174.926C307.926 174.218 307.727 173.433 307.716 172.634V130.023C307.716 128.45 308.671 127.72 309.85 128.408L347.409 150.093C348.059 150.561 348.59 151.174 348.96 151.883C349.331 152.593 349.531 153.379 349.544 154.18V196.79C349.614 198.363 348.589 199.08 347.409 198.406Z" fill="black"/>
<path d="M393.14 230.553L355.511 208.869C354.861 208.405 354.328 207.795 353.957 207.087C353.587 206.38 353.388 205.595 353.377 204.796V162.171C353.377 160.612 354.332 159.882 355.511 160.57L393.14 182.254C393.791 182.718 394.323 183.328 394.694 184.036C395.065 184.743 395.264 185.528 395.275 186.327V228.924C395.204 230.511 394.25 231.241 393.14 230.553Z" fill="#D9D9D9"/>
<path d="M290.222 232.562L252.733 210.877C252.082 210.414 251.55 209.803 251.179 209.096C250.808 208.388 250.609 207.603 250.599 206.804V164.179C250.599 162.62 251.553 161.89 252.733 162.578L290.222 184.263C290.872 184.726 291.405 185.336 291.775 186.044C292.146 186.752 292.345 187.537 292.356 188.336V230.96C292.356 232.519 291.401 233.25 290.222 232.562Z" fill="#D9D9D9"/>
<path d="M393.14 326.336L252.733 245.258C252.084 244.79 251.552 244.177 251.182 243.467C250.811 242.758 250.612 241.971 250.599 241.171V231.34C250.599 229.767 251.553 229.036 252.733 229.725L393.14 310.817C393.791 311.281 394.323 311.891 394.694 312.598C395.065 313.306 395.264 314.091 395.274 314.89V324.721C395.204 326.294 394.249 327.024 393.14 326.336Z" fill="#D9D9D9"/>
<path d="M357.014 328.639L253.295 268.796C252.644 268.333 252.112 267.723 251.741 267.015C251.37 266.307 251.171 265.522 251.161 264.723V259.822C251.161 258.249 252.115 257.519 253.295 258.207L357.014 318.092C357.663 318.56 358.194 319.173 358.565 319.883C358.935 320.592 359.135 321.379 359.148 322.179V327.052C359.148 328.639 358.193 329.37 357.014 328.639Z" fill="#D9D9D9"/>
<path d="M357.014 347.178L253.295 287.279C252.644 286.815 252.112 286.205 251.741 285.497C251.37 284.79 251.171 284.005 251.161 283.206V278.332C251.161 276.759 252.115 276.043 253.295 276.717L357.014 336.603C357.663 337.071 358.194 337.684 358.565 338.393C358.935 339.103 359.135 339.889 359.148 340.69V345.563C359.148 347.136 358.193 347.852 357.014 347.178Z" fill="#D9D9D9"/>
<path d="M337.441 354.369L253.295 305.761C252.644 305.298 252.112 304.687 251.741 303.98C251.37 303.272 251.171 302.487 251.161 301.688V296.815C251.161 295.242 252.115 294.526 253.295 295.2L337.441 343.793C338.09 344.261 338.621 344.875 338.992 345.584C339.362 346.294 339.562 347.08 339.575 347.88V352.754C339.575 354.327 338.62 355.043 337.441 354.369Z" fill="black"/>
<path d="M624.265 460.657L421.559 343.639C420.908 343.175 420.376 342.565 420.005 341.858C419.634 341.15 419.436 340.365 419.425 339.566V329.735C419.425 328.162 420.38 327.446 421.559 328.12L624.265 445.208C624.915 445.672 625.448 446.282 625.819 446.989C626.189 447.697 626.388 448.482 626.399 449.281V459.112C626.399 460.657 625.444 461.387 624.265 460.657Z" fill="#D9D9D9"/>
<path d="M604.285 472.342L422.205 367.177C421.554 366.714 421.022 366.104 420.651 365.396C420.28 364.688 420.081 363.903 420.07 363.104V358.231C420.07 356.658 421.025 355.942 422.205 356.616L604.285 461.766C604.934 462.234 605.465 462.848 605.836 463.557C606.206 464.267 606.406 465.053 606.419 465.853V470.727C606.419 472.3 605.464 473.016 604.285 472.342Z" fill="#D9D9D9"/>
<path d="M604.285 490.824L422.205 385.674C421.555 385.206 421.024 384.593 420.654 383.883C420.283 383.174 420.083 382.387 420.07 381.587V376.714C420.07 375.141 421.025 374.424 422.205 375.098L604.285 480.319C604.935 480.783 605.468 481.393 605.838 482.101C606.209 482.808 606.408 483.593 606.419 484.392V489.266C606.419 490.782 605.464 491.555 604.285 490.824Z" fill="#D9D9D9"/>
<path d="M570.531 489.813L422.205 404.142C421.555 403.674 421.024 403.061 420.654 402.352C420.283 401.642 420.083 400.856 420.07 400.055V395.182C420.07 393.609 421.025 392.893 422.205 393.567L570.531 479.238C571.179 479.703 571.709 480.314 572.08 481.021C572.45 481.728 572.651 482.512 572.665 483.311V488.184C572.665 489.771 571.696 490.487 570.531 489.813Z" fill="black"/>
<path d="M342.285 262.631L304.684 240.946C304.033 240.483 303.501 239.872 303.13 239.165C302.759 238.457 302.56 237.672 302.549 236.873V194.248C302.549 192.689 303.504 191.959 304.684 192.647L342.242 214.332C342.893 214.795 343.425 215.406 343.796 216.113C344.167 216.821 344.366 217.606 344.377 218.405V261.03C344.419 262.631 343.464 263.319 342.285 262.631Z" fill="#D9D9D9"/>
<path d="M393.14 291.969L355.511 270.271C354.861 269.807 354.328 269.197 353.957 268.49C353.587 267.782 353.388 266.997 353.377 266.198V223.587C353.377 222.014 354.332 221.284 355.511 221.972L393.14 243.657C393.79 244.125 394.321 244.738 394.691 245.447C395.062 246.157 395.262 246.943 395.275 247.744V290.354C395.204 291.927 394.25 292.644 393.14 291.969Z" fill="#D9D9D9"/>
<path d="M624.265 425.546L421.559 308.416C420.908 307.952 420.376 307.342 420.005 306.634C419.634 305.927 419.436 305.141 419.425 304.343V237.575C419.425 236.002 420.38 235.272 421.559 235.96L624.265 353.021C624.914 353.489 625.445 354.102 625.816 354.811C626.186 355.521 626.386 356.307 626.399 357.108V423.875C626.399 425.448 625.444 426.164 624.265 425.546Z" fill="#D9D9D9"/>
<path d="M449.303 227.309C432.089 217.365 418.077 193.111 418.077 173.224C418.077 153.337 432.117 145.261 449.303 155.191C466.489 165.12 480.516 189.403 480.516 209.276C480.516 229.149 466.503 237.252 449.303 227.309ZM449.303 165.612C437.06 158.59 427.105 164.306 427.105 178.434C427.105 192.563 437.06 209.824 449.303 216.888C461.547 223.952 471.502 218.208 471.502 204.065C471.502 189.923 461.519 172.746 449.303 165.612Z" fill="#D9D9D9"/>
<path d="M449.303 227.309C432.089 217.366 418.077 193.111 418.077 173.224C418.077 153.337 432.117 145.261 449.303 155.191V165.612C437.06 158.59 427.105 164.306 427.105 178.434C427.105 192.563 437.06 209.824 449.303 216.888C461.547 223.952 471.502 218.208 471.502 204.065L480.516 209.276C480.502 229.163 466.503 237.252 449.303 227.309Z" fill="black"/>
<path d="M522.118 269.386C504.904 259.443 490.906 235.174 490.906 215.301C490.906 195.428 504.946 187.325 522.118 197.268C539.29 207.211 553.331 231.466 553.331 251.353C553.331 271.24 539.332 279.329 522.118 269.386ZM522.118 207.689C509.875 200.667 499.92 206.369 499.92 220.511C499.92 234.654 509.875 251.887 522.118 258.965C534.362 266.043 544.317 260.285 544.317 246.143C544.317 232 534.362 214.753 522.118 207.689Z" fill="#D9D9D9"/>
<path d="M522.118 269.386C504.904 259.443 490.906 235.174 490.906 215.301C490.906 195.428 504.946 187.325 522.118 197.268V207.689C509.875 200.667 499.92 206.369 499.92 220.511C499.92 234.654 509.875 251.887 522.118 258.965C526.667 261.591 531.034 262.532 534.755 261.774L539.908 273.304C534.671 274.414 528.521 273.08 522.118 269.386Z" fill="black"/>
<path d="M594.948 311.435C577.734 301.492 563.735 277.223 563.735 257.35C563.735 237.477 577.776 229.373 594.948 239.317C612.12 249.26 626.216 273.515 626.216 293.402C626.216 313.289 612.176 321.378 594.948 311.435ZM594.948 249.738C582.718 242.716 572.75 248.418 572.75 262.56C572.75 276.703 582.718 293.936 594.948 301.014C607.177 308.092 617.146 302.334 617.146 288.192C617.146 274.049 607.191 256.802 594.948 249.738Z" fill="#D9D9D9"/>
<path d="M567.779 277.462C565.239 271.054 563.869 264.242 563.735 257.35C563.735 237.463 577.776 229.373 594.948 239.317V249.738C582.718 242.716 572.749 248.418 572.749 262.56C572.856 267.458 573.846 272.297 575.67 276.844L567.779 277.462Z" fill="black"/>
<path opacity="0.4" d="M476.809 673.795C494.319 673.795 508.513 665.596 508.513 655.481C508.513 645.367 494.319 637.167 476.809 637.167C459.299 637.167 445.105 645.367 445.105 655.481C445.105 665.596 459.299 673.795 476.809 673.795Z" fill="#D6D8E5"/>
<path opacity="0.4" d="M141.643 681.014C159.153 681.014 173.347 672.815 173.347 662.7C173.347 652.586 159.153 644.386 141.643 644.386C124.133 644.386 109.939 652.586 109.939 662.7C109.939 672.815 124.133 681.014 141.643 681.014Z" fill="#D6D8E5"/>
<path opacity="0.4" d="M31.704 514.883C49.2136 514.883 63.4079 506.683 63.4079 496.569C63.4079 486.454 49.2136 478.255 31.704 478.255C14.1943 478.255 0 486.454 0 496.569C0 506.683 14.1943 514.883 31.704 514.883Z" fill="#D6D8E5"/>
<path d="M492.577 651.099C490.513 652.771 487.466 651.24 487.312 651.394C484.895 653.646 482.354 655.76 479.701 657.728C478.424 658.74 476.416 660.102 476.781 662.04C477.427 665.523 482.987 664.456 485.093 663.444C487.199 662.433 488.898 660.636 490.892 659.386C492.296 658.501 493.7 658.051 493.925 656.254C494.051 655.116 492.942 651.057 492.577 651.099Z" fill="#38226D"/>
<path d="M493.897 655.481C493.616 657.195 492.24 657.672 490.836 658.543C488.814 659.793 487.045 661.605 484.939 662.658C482.833 663.711 478.171 664.624 476.809 662.138C477.553 665.495 483.015 664.442 485.093 663.388C487.171 662.335 488.898 660.579 490.892 659.329C492.296 658.445 493.7 657.995 493.925 656.197C493.934 655.958 493.925 655.719 493.897 655.481Z" fill="#9C73FF"/>
<path d="M474.675 644.442C472.611 646.128 469.058 644.288 468.848 644.442C466.708 646.623 464.439 648.672 462.052 650.58C460.774 651.591 458.766 652.953 459.132 654.891C459.777 658.36 465.338 657.293 467.444 656.296C469.55 655.299 471.249 653.487 473.243 652.237C474.647 651.352 476.051 650.832 476.275 649.105C476.402 647.967 475.04 644.4 474.675 644.442Z" fill="#38226D"/>
<path d="M476.205 648.571C475.981 650.257 474.577 650.762 473.173 651.661C471.151 652.911 469.367 654.723 467.275 655.79C465.183 656.858 460.494 657.742 459.132 655.256C459.876 658.613 465.338 657.56 467.416 656.506C469.494 655.453 471.235 653.698 473.215 652.448C474.619 651.563 476.023 651.043 476.247 649.33C476.269 649.076 476.255 648.821 476.205 648.571Z" fill="#9C73FF"/>
<path d="M492.689 574.965C492.591 578.082 491.622 591.621 491.187 598.84C490.751 606.059 490.653 614.794 490.653 614.794C490.653 614.794 491.889 620.019 492.689 626.156C493.489 632.294 492.689 651.675 492.689 651.675C491.902 652.183 490.986 652.452 490.049 652.452C489.113 652.452 488.197 652.183 487.41 651.675C487.41 651.675 484.11 636.226 482.58 629.204C481.049 622.182 480.796 618.179 479.996 613.853C479.041 608.615 476.963 584.164 476.963 584.164H476.135L473.931 611.761C474.618 613.793 475.089 615.893 475.335 618.025C475.938 622.533 474.703 645.144 474.703 645.144C473.823 645.636 472.825 645.873 471.819 645.831C470.813 645.789 469.838 645.469 469.002 644.906C469.002 644.906 463.484 614.949 463.484 610.399C463.484 607.379 464.004 567.619 464.004 567.619L492.689 574.965Z" fill="black"/>
<path d="M485.22 514.686C485.22 514.686 484.869 521.483 485.023 522.087C485.177 522.691 488.14 524.686 489.011 525.388C489.881 526.09 484.307 531.595 481.597 532.845C478.887 534.095 470.364 530.809 470.168 526.596C469.971 522.382 471.572 518.843 472.976 518.66C474.38 518.478 485.22 514.686 485.22 514.686Z" fill="#CCCCCC"/>
<path d="M466.601 527.298C466.194 524.306 468.174 521.455 466.264 519.068C459.553 525.641 460.395 543.056 458.879 554.179C453.895 559.389 443.884 564.515 441.061 565.794C440.542 566.018 440.107 566.271 440.205 566.819C440.584 568.674 441.381 570.417 442.536 571.917C449.163 569.108 453.937 567.423 462.193 559.558C462.983 558.691 463.689 557.751 464.299 556.749C466.686 549.727 467.275 532.48 466.601 527.298Z" fill="#CCCCCC"/>
<path d="M485.977 523.253C485.977 523.253 481.049 530.612 474.155 531.3C471.993 529.166 471.796 521.554 474.801 519.11C474.801 519.11 471.993 516.891 470.139 517.312C468.121 518.551 466.623 520.483 465.927 522.747C464.174 527.801 463.351 533.13 463.498 538.477C463.61 545.696 463.498 567.746 463.498 567.746C463.498 567.746 464.467 572.408 470.701 575.877C476.935 579.346 481.54 579.683 485.767 578.686C489.249 577.872 492.127 576.636 493.335 574.108C493.026 569.052 490.765 555.85 491.608 549.502C492.45 543.154 493.798 538.393 494.135 533.253C494.472 528.112 493.461 528.211 490.892 526.385C489.332 525.223 487.689 524.176 485.977 523.253Z" fill="#F4F4F4"/>
<path d="M469.831 504.546C470.646 499.265 474.451 495.262 479.884 495.571C481.261 495.647 482.61 495.993 483.853 496.59C485.096 497.187 486.209 498.024 487.128 499.052C488.048 500.08 488.755 501.279 489.211 502.581C489.666 503.882 489.861 505.261 489.783 506.638C489.696 508.239 489.238 509.798 488.446 511.192C487.654 512.586 486.55 513.777 485.22 514.672C485.025 515.473 484.742 516.25 484.378 516.989C482.454 519.236 476.627 520.627 474.956 520.388C473.96 520.299 473.014 519.913 472.24 519.279C471.466 518.646 470.901 517.794 470.618 516.835C468.82 512.692 469.382 507.158 469.831 504.546Z" fill="#CCCCCC"/>
<path d="M485.22 514.672L484.714 510.079C484.714 510.079 488.477 500.332 479.59 502.2C473.721 503.436 472.246 503.97 470.463 500.038C468.68 496.105 474.97 492.552 482.454 493.535C485.03 493.806 487.411 495.034 489.124 496.977C490.838 498.92 491.76 501.436 491.707 504.026C491.51 506.919 490.738 512.79 485.22 514.672Z" fill="#3A2C6D"/>
<path d="M495.638 530.233C493.068 529.503 495.034 530.107 493.068 529.503C486.357 536.075 487.185 547.353 485.669 558.504C481.962 564.628 468.216 572.928 468.216 572.928C468.048 574.122 468.455 574.473 469.943 576.861C477.599 573.931 484.561 569.44 490.387 563.673C490.724 563.364 491.201 563.28 491.341 562.858C493.686 555.752 496.312 535.415 495.638 530.233Z" fill="#CCCCCC"/>
<path d="M434.448 543.969L444.445 578.153L466.363 586.902L458.374 553.617L434.448 543.969Z" fill="#F4F4F4"/>
<path d="M471.656 573.181C471.333 572.015 470.491 572.296 469.536 572.591C468.508 573.012 467.377 573.11 466.292 572.872C465.444 572.462 464.659 571.932 463.962 571.299C463.538 571.042 463.053 570.901 462.558 570.892C462.558 571.187 463.063 572.914 463.063 572.914C463.063 572.914 458.261 572.914 457.77 572.914C457.604 572.879 457.432 572.898 457.278 572.967C457.124 573.036 456.996 573.152 456.911 573.299C456.827 573.445 456.792 573.615 456.81 573.783C456.828 573.951 456.898 574.109 457.012 574.234C456.904 574.242 456.796 574.242 456.689 574.234C455.706 574.01 455.285 575.526 456.267 575.751C456.532 575.802 456.799 575.84 457.068 575.863C456.422 576.116 456.267 577.184 457.068 577.268H457.306C457.426 577.301 457.552 577.301 457.671 577.268H457.812C457.792 577.382 457.795 577.5 457.821 577.613C457.847 577.726 457.896 577.833 457.964 577.927C458.032 578.022 458.118 578.101 458.217 578.162C458.317 578.222 458.427 578.262 458.542 578.279C460.887 578.588 464.341 579.529 466.461 577.591C467.918 577.437 469.34 577.048 470.673 576.439C472.007 575.891 472.049 574.571 471.656 573.181Z" fill="#CCCCCC"/>
<path d="M447.675 570.386H447.338C447.451 570.28 447.532 570.143 447.571 569.993C447.609 569.842 447.604 569.683 447.555 569.536C447.506 569.388 447.416 569.257 447.296 569.159C447.175 569.061 447.029 568.999 446.874 568.982C446.383 568.982 441.441 567.956 441.441 567.956L440.837 565.92C440.837 565.808 439.98 566.327 439.952 566.341C439.535 566.616 439.185 566.981 438.928 567.408C438.67 567.836 438.512 568.316 438.464 568.813C438.432 569.511 438.54 570.209 438.781 570.865C439.022 571.521 439.392 572.122 439.868 572.633C440.766 573.513 441.967 574.016 443.224 574.038C443.814 574.038 444.389 574.038 444.909 574.15C445.026 574.158 445.145 574.141 445.256 574.102C445.367 574.062 445.469 574.001 445.556 573.92C445.642 573.84 445.712 573.743 445.76 573.636C445.808 573.528 445.834 573.411 445.835 573.293H445.99C446.105 573.321 446.225 573.321 446.341 573.293H446.594C447.436 573.293 447.506 572.254 446.931 571.889C447.197 571.889 447.464 571.889 447.745 571.889C448.77 571.945 448.672 570.372 447.675 570.386Z" fill="#CCCCCC"/>
<path d="M463.807 531.75C462.449 531.695 461.163 531.122 460.213 530.149C460.409 527.621 463.639 518.029 470.14 517.312C468.372 518.558 466.971 520.256 466.082 522.228C465.08 525.339 464.32 528.522 463.807 531.75Z" fill="#EDEDED"/>
<path d="M496.803 544.432C496.803 544.432 490.33 546.665 485.767 542.915C485.275 542.058 488.406 531.048 488.406 531.048C488.406 531.048 491.13 525.43 495.427 527.649C499.723 529.868 496.803 544.432 496.803 544.432Z" fill="#EDEDED"/>
<path d="M119.417 540.233C119.417 540.233 120.315 553.673 122.07 555.611C123.825 557.549 129.793 558.87 129.793 558.87L134.398 566.44C134.398 566.44 130.186 542.381 129.287 541.806C128.389 541.23 119.417 540.233 119.417 540.233Z" fill="#CCCCCC"/>
<path d="M128.248 525.261C127.132 524.74 125.862 524.65 124.683 525.007C123.504 525.365 122.498 526.146 121.859 527.199C120.161 530.008 118.405 539.615 118.251 541.244C118.251 541.244 120.624 544.53 124.176 544.053L128.248 525.261Z" fill="#EDEDED"/>
<path d="M141.811 659.54C144.313 660.228 146.986 659.905 149.252 658.641C151.036 658.641 160.766 654.526 162.086 658.023C163.251 661.085 159.039 663.922 156.792 664.47C151.878 665.663 148.241 668.107 146.262 668.528C144.858 668.837 142.892 669.034 141.727 667.882C140.407 666.492 140.491 661.366 141.811 659.54Z" fill="#38226D"/>
<path d="M146.318 667.672C148.298 667.264 151.935 664.863 156.849 663.613C158.73 663.163 161.974 661.099 162.311 658.641C162.746 661.45 158.941 663.964 156.849 664.47C151.935 665.663 148.298 668.107 146.318 668.528C144.914 668.837 142.948 669.034 141.783 667.882C141.472 667.55 141.249 667.144 141.137 666.703C141.866 667.256 142.714 667.632 143.613 667.8C144.513 667.968 145.439 667.924 146.318 667.672Z" fill="#9C73FF"/>
<path d="M126.718 654.807C129.219 655.502 131.895 655.179 134.159 653.908C135.956 653.908 145.673 649.807 147.006 653.304C148.158 656.366 143.946 659.203 141.699 659.751C136.785 660.93 133.148 663.388 131.183 663.795C129.708 664.104 127.799 664.315 126.633 663.163C125.229 661.773 125.356 656.647 126.718 654.807Z" fill="#38226D"/>
<path d="M131.182 662.897C133.148 662.475 136.799 660.088 141.699 658.838C143.58 658.388 146.838 656.324 147.161 653.852C147.596 656.661 143.791 659.175 141.699 659.694C136.785 660.874 133.148 663.332 131.182 663.739C129.708 664.048 127.799 664.259 126.633 663.107C126.329 662.769 126.108 662.365 125.987 661.928C126.719 662.481 127.569 662.857 128.471 663.025C129.372 663.193 130.301 663.149 131.182 662.897Z" fill="#9C73FF"/>
<path d="M125.651 627.449C126.069 623.838 126.821 620.274 127.897 616.803C127.897 616.803 127.223 607.604 126.886 598.882C126.507 589.051 123.081 580.287 125.777 572.394L155.852 579.094C155.852 579.094 154.448 618.615 153.985 623.39C153.751 627.109 153.282 630.81 152.581 634.471C151.177 642.125 149.674 659.259 149.674 659.259C146.445 661.141 141.713 659.596 141.713 659.596C141.713 659.596 141.713 638.15 141.896 632.631C142.148 625.89 142.359 626.409 142.359 626.409L141.348 609.626L140.688 601.284C140.688 601.284 139.846 607.407 139.284 612.87C138.807 617.646 137.655 621.957 136.364 630.847C135.254 638.544 134.103 654.259 134.103 654.259C130.874 656.127 126.521 654.835 126.521 654.835C126.521 654.835 124.78 634.134 125.651 627.449Z" fill="black"/>
<path d="M129.877 525.458C132.194 525.57 133.921 526.174 134.216 525.458C134.466 524.257 134.644 523.042 134.749 521.82C134.482 521.146 134.244 520.416 134.244 520.416C131.323 518.632 130.411 515.472 130.032 511.793C129.386 505.515 132.84 500.023 139.046 499.363C144.957 498.745 149.295 502.903 150.461 508.591C151.079 511.399 152.328 516.722 150.643 521.343C149.703 523.941 148.495 525.992 147.288 526.385C146.116 526.363 144.948 526.26 143.791 526.076C143.791 526.076 143.483 527.817 143.272 528.885C143.061 529.952 143.132 530.584 145.364 531.96C147.597 533.337 141.994 536.174 138.344 535.879C134.693 535.584 130.565 533.393 129.442 531.034C128.164 528.491 128.276 525.374 129.877 525.458Z" fill="#CCCCCC"/>
<path d="M133.232 525.809C132.587 527.41 134.229 529.376 138.596 530.739C142.963 532.101 143.342 530.345 143.342 530.345C146.228 531.65 149.041 533.113 151.766 534.727C154.378 536.553 155.543 541.862 155.894 550.808C156.301 561.159 156.344 576.523 155.993 579.178C155.993 579.178 151.106 584.065 144.76 583.546C138.414 583.026 127.911 577.478 125.398 573.195C125.398 564.122 126.535 562.647 125.061 557.409C121.691 545.429 119.922 540.556 121.565 532.578C122.969 526.02 124.794 525.205 127.392 525.261C129.347 525.339 131.297 525.522 133.232 525.809Z" fill="#F4F4F4"/>
<path d="M150.559 587.155L147.428 551.089L154.153 547.522L156.779 549.727L155.852 582.113V583.012V584.164C155.852 584.164 155.993 586.888 150.854 590.147C150.854 590.147 150.769 589.29 150.699 588.489L150.573 587.085L150.559 587.155Z" fill="#CCCCCC"/>
<path d="M149.758 532.494C153.226 532.494 155.375 534.264 156.287 539.615C157.2 544.966 157.691 549.347 157.691 549.347C156.094 551.121 153.878 552.216 151.499 552.409C147.287 552.873 146.08 550.738 146.08 550.738C146.08 550.738 145.63 545.19 145.406 541.412C145.181 537.634 145.462 532.578 149.758 532.494Z" fill="#EDEDED"/>
<path d="M150.236 507.79C150.236 507.79 155.655 499.546 143.903 497.861C135.479 496.653 129.975 502.074 129.343 508.015C128.739 513.633 132.221 519.517 134.735 521.848C137.203 522.476 139.816 522.16 142.064 520.964C142.202 519.428 142.253 517.885 142.218 516.343C142.218 516.343 138.104 507.636 150.236 507.79Z" fill="#3A2C6D"/>
<path d="M31.8162 331.35C30.5807 329.356 21.1453 328.05 18.0423 336.041C16.8629 339.074 17.0454 346.827 16.0625 351.686C15.0797 356.546 12.763 359.313 11.9346 363.259C11.1062 367.205 12.4541 373.834 21.9737 375C31.4933 376.166 38.8226 372.823 41.041 369.79C43.2594 366.756 43.3296 360.31 41.041 356.855C38.7524 353.4 36.9411 350.577 36.9973 346.069L31.8162 331.35Z" fill="#3A2C6D"/>
<path d="M43.1054 364.79C43.1054 364.79 45.3378 380.604 41.1256 391.839C36.9134 403.075 38.0647 388.96 38.0647 388.96L39.0897 385.604C39.0897 385.604 39.9321 372.711 39.5811 369.551C39.2301 366.391 39.3144 363.666 39.0897 363.414C38.8651 363.161 39.9181 362.655 40.3674 362.599C40.8167 362.543 43.1054 364.79 43.1054 364.79Z" fill="#CCCCCC"/>
<path d="M25.5825 329.96C25.5825 329.96 32.6871 327.923 36.9836 331.757C38.4043 333.065 39.4395 334.736 39.9767 336.591C40.5138 338.446 40.5324 340.412 40.0304 342.277C39.4548 344.524 38.3034 347.585 36.5202 347.754C34.7371 347.922 25.5825 329.96 25.5825 329.96Z" fill="#3A2C6D"/>
<path d="M22.8725 349.341C22.8725 349.341 23.3358 357.248 23.1954 357.767C23.055 358.287 20.0784 358.919 19.25 359.607C18.4216 360.295 23.5605 368.329 26.172 369.523C28.7836 370.716 36.857 367.669 37.4046 363.652C37.9241 359.944 35.102 357.065 34.0068 356.068C33.2635 356.016 32.5176 356.016 31.7743 356.068L31.5356 352.22C28.0816 351.11 22.8725 349.341 22.8725 349.341Z" fill="#CCCCCC"/>
<path d="M21.777 358.596C19.5585 358.947 17.0171 360.127 16.6661 361.405C15.754 365.793 15.9763 370.342 17.312 374.621C19.2356 379.705 20.5273 382.949 21.6365 385.14C21.6365 385.14 31.2545 389.269 39.019 384.466C39.019 384.466 39.5385 379.003 39.5806 376.039C46.7414 369.789 40.6196 362.093 34.554 356.11C33.8256 356.04 33.0921 356.04 32.3637 356.11C32.3637 356.11 37.7834 362.5 34.0205 366.138C25.9611 363.666 24.3605 360.043 21.777 358.596Z" fill="#F4F4F4"/>
<path d="M37.6569 339.524C36.8565 334.44 33.1779 330.606 27.9407 330.901C25.2631 331.063 22.7591 332.281 20.9774 334.287C19.1957 336.293 18.2815 338.924 18.4351 341.602C18.5275 343.147 18.9761 344.65 19.7459 345.992C20.5156 347.335 21.5856 348.481 22.872 349.341C23.0558 350.108 23.3243 350.852 23.6723 351.56C25.5397 353.723 30.468 355.099 32.0967 355.113C33.5008 355.113 34.7223 353.821 36.0422 351.63C38.7801 347.08 38.0921 342.038 37.6569 339.524Z" fill="#CCCCCC"/>
<path d="M26.3128 330.999C22.6341 331.715 19.6154 332.754 18.6185 336.364C17.9305 338.85 17.0319 343.597 17.8884 345.591L18.4219 346.996L22.8728 349.299C22.8728 349.299 24.9509 347.557 24.2769 342.487C24.2955 341.8 24.5098 341.133 24.8947 340.563C25.1761 340.082 25.3844 339.561 25.5125 339.018C26.0385 337.645 27.0748 336.528 28.4049 335.9C31.7185 334.033 36.5766 335.648 37.2505 336.322C36.3134 334.315 34.7155 332.691 32.7244 331.722C30.7332 330.753 28.4697 330.498 26.3128 330.999Z" fill="#3A2C6D"/>
<path d="M19.6572 491.316C21.5247 492.833 24.4171 491.779 24.5575 491.92C26.7217 493.792 28.9855 495.545 31.3391 497.172C32.5045 498.085 34.3158 499.307 33.9928 501.063C33.4031 504.195 28.3765 503.226 26.481 502.271C24.5855 501.316 23.0411 499.715 21.2579 498.605C19.9802 497.819 18.7165 497.397 18.4497 495.796C18.3936 494.771 19.3062 491.274 19.6572 491.316Z" fill="#38226D"/>
<path d="M18.548 495.094C18.7867 496.639 20.0363 497.06 21.3562 497.903C23.1814 499.026 24.7821 500.712 26.6776 501.625C28.5731 502.538 32.7853 503.38 34.0209 501.147C33.3469 504.167 28.4046 503.226 26.5372 502.271C24.6698 501.316 23.0972 499.715 21.314 498.605C20.0363 497.819 18.7727 497.397 18.5059 495.796C18.4805 495.561 18.4947 495.324 18.548 495.094Z" fill="#9C73FF"/>
<path d="M32.6869 488.746C34.3998 490.15 36.8991 489.35 37.0956 489.476C39.0816 491.18 41.163 492.77 43.3297 494.237C44.3828 495.066 46.0396 496.189 45.7447 497.79C45.2112 500.599 40.6058 499.785 38.8788 498.9C37.1518 498.015 35.7197 496.569 34.0769 495.543C32.9115 494.827 31.7602 494.448 31.5776 492.959C31.6346 491.49 32.0133 490.052 32.6869 488.746Z" fill="#38226D"/>
<path d="M31.6055 492.327C31.8301 493.732 33.0096 494.139 34.1188 494.855C35.7896 495.894 37.2639 497.383 38.9909 498.268C40.7179 499.153 44.6072 499.883 45.7164 497.833C45.1127 500.642 40.5916 499.729 38.8786 498.858C37.1656 497.987 35.7194 496.526 34.0767 495.501C32.9113 494.785 31.7599 494.406 31.5774 492.917C31.5606 492.72 31.5701 492.522 31.6055 492.327Z" fill="#9C73FF"/>
<path d="M42.726 402.106C41.8976 395.687 39.5387 386.362 39.5387 386.362C37.3021 387.403 34.8843 388 32.4201 388.117C28.8058 388.108 25.2003 387.76 21.6509 387.078C20.4895 389.099 19.2242 391.059 17.8599 392.949C16.0065 395.519 12.398 401.151 13.2685 410.982C13.8442 417.414 17.4808 444.688 17.4808 444.688C16.0829 449.28 15.3407 454.046 15.2764 458.845C15.6086 464.548 16.3595 470.218 17.5229 475.811L19.6711 491.26C19.6711 491.26 22.4793 493.324 24.5713 491.864L24.3186 476.696C24.5573 472.988 24.9223 467.511 25.161 464.056C25.5542 458.368 26.5651 449.323 26.86 447.076C27.1548 444.829 27.8849 440.868 28.264 436.444C28.6431 432.02 30.2719 409.549 30.2719 409.549L30.5106 413.763C30.5106 413.763 30.7212 420.602 31.704 429.029C32.6869 437.456 33.0379 441.191 33.0379 441.191C32.085 442.88 31.4073 444.71 31.0301 446.613C30.8616 448.424 28.7695 462.834 30.0191 470.165L32.5745 488.802C33.2115 489.24 33.9432 489.521 34.7097 489.621C35.4761 489.721 36.2553 489.638 36.9833 489.378L38.4857 470.6C39.4966 463.452 41.6308 448.298 41.9537 446.332C42.6788 442.362 43.1059 438.343 43.2315 434.31C43.7289 423.575 43.5601 412.82 42.726 402.106Z" fill="#CCCCCC"/>
<path d="M21.6366 385.084L16.1045 396.193C16.1045 396.193 7.68008 408.538 16.4134 440.278L14.7706 450.11C14.7706 450.11 31.3106 460.727 42.3888 450.11C42.3888 450.11 46.2219 420.785 44.186 407.26C43.0477 399.483 41.3252 391.802 39.033 384.283C39.033 384.283 36.3232 387.275 22.3667 385.295" fill="black"/>
<path d="M56.2327 392.977C54.8204 393.035 53.4133 393.185 52.0205 393.426C50.6937 393.843 49.3114 394.056 47.9206 394.058C46.4042 394.058 42.178 391.952 38.5555 389.41C34.6223 386.455 31.2224 382.85 28.5023 378.75C25.6497 374.376 23.1653 369.772 21.0748 364.986C19.8953 361.588 19.9234 363.905 17.9156 363.849C15.5427 363.849 14.279 364.663 16.0482 369.284C17.8181 374.065 20.2881 378.557 23.3774 382.612C26.2788 386.702 29.8539 390.268 33.9501 393.16C37.5579 395.687 41.4565 397.771 45.5618 399.367C46.7412 399.845 47.4994 400.505 49.6336 401.685C51.777 402.912 54.1859 403.601 56.654 403.693C58.7039 403.693 59.4621 403.3 59.6025 402.878C59.7429 402.457 59.42 401.994 58.4793 401.909C56.983 401.886 55.5033 401.591 54.1126 401.038C54.1126 401.038 56.1485 401.333 57.3841 401.39C58.4903 401.455 59.6003 401.37 60.6837 401.137C61.7227 400.884 62.2983 399.423 61.3576 399.311C60.4169 399.199 59.6446 399.311 57.8193 399.241C56.8663 399.177 55.924 399.002 55.0112 398.721C56.2379 398.73 57.4634 398.641 58.6758 398.454C59.659 398.358 60.5941 397.982 61.3716 397.373C61.7788 397.036 61.849 396.095 60.6556 396.109C59.1821 396.367 57.6825 396.442 56.1906 396.334C54.7163 396.123 53.6914 395.772 53.916 395.575C54.1407 395.379 55.0112 395.575 56.2468 395.126C57.4824 394.676 58.3248 393.595 58.044 392.963C57.7632 392.331 57.5666 392.738 56.2327 392.977Z" fill="#CCCCCC"/>
<path d="M17.1014 373.666C17.1014 373.666 22.5211 373.947 25.5961 370.562L22.2544 363.54C22.2544 363.54 20.7239 359.678 17.1155 360.633C13.507 361.588 13.4508 366.714 17.1014 373.666Z" fill="#EDEDED"/>
<path d="M34.5547 356.096C34.5547 356.096 38.9494 354.692 43.611 364.523L41.8699 365.576C41.8699 365.576 37.2786 358.582 34.5547 356.096Z" fill="#EDEDED"/>
<path d="M110.29 153.084L32.5888 108.142L32.2939 107.973C30.1036 106.808 27.141 107.018 23.8695 108.9C17.172 112.777 11.7383 122.186 11.7383 129.967C11.7383 133.97 13.2126 136.736 15.5574 137.93L94.3118 183.392L110.29 153.084Z" fill="#919191"/>
<path d="M110.955 173.209C115.693 165 115.696 156.13 110.962 153.395C106.227 150.661 98.5483 155.099 93.8103 163.308C89.0723 171.516 89.0695 180.387 93.804 183.121C98.5385 185.855 106.217 181.418 110.955 173.209Z" fill="#B7B7B7"/>
<path d="M137.093 201.874L96.6138 178.505V162.101L137.093 185.485V201.874Z" fill="#D6D8E5"/>
<path d="M137.093 185.513L96.6138 162.143L105.937 156.75L146.416 180.134L137.093 185.513Z" fill="#C4C7D6"/>
<path d="M236.158 292.751C260.522 278.68 260.522 233.055 236.157 190.843C211.793 148.631 172.29 125.818 147.926 139.888C123.562 153.959 123.562 199.584 147.927 241.796C172.292 284.008 211.794 306.821 236.158 292.751Z" fill="url(#paint0_linear)"/>
<path d="M200.558 298.907C158.787 274.779 124.738 215.891 124.738 167.634C124.738 119.378 158.73 99.7575 200.558 123.886C242.385 148.014 276.378 206.902 276.378 255.145C276.378 303.388 242.343 323.022 200.558 298.907ZM200.558 151.525C171.971 135.009 148.719 148.435 148.719 181.454C148.719 214.472 171.971 254.766 200.558 271.338C229.145 287.911 252.396 274.414 252.396 241.41C252.396 208.405 229.145 168.027 200.558 151.525Z" fill="#B7B7B7"/>
<path d="M192.049 303.823C150.264 279.695 116.229 220.806 116.229 172.55C116.229 124.293 150.208 104.673 192.049 128.801C233.891 152.93 267.869 211.818 267.869 260.061C267.869 308.303 233.821 327.951 192.049 303.823ZM192.049 156.441C163.462 139.925 140.211 153.351 140.211 186.369C140.211 219.388 163.462 259.681 192.049 276.254C220.636 292.826 243.888 279.329 243.888 246.325C243.888 213.321 220.636 172.943 192.049 156.441Z" fill="#919191"/>
</g>
<defs>
<linearGradient id="paint0_linear" x1="261.813" y1="256.604" x2="122.258" y2="176.049" gradientUnits="userSpaceOnUse">
<stop stop-color="white" stop-opacity="0.4"/>
<stop offset="0.89" stop-color="white" stop-opacity="0"/>
</linearGradient>
<clipPath id="clip0">
<rect width="655" height="681" fill="white"/>
</clipPath>
</defs>
</svg>
